<mxfile host="app.diagrams.net" modified="2024-06-18T10:55:34.058Z" agent="Mozilla/5.0 (Windows NT 10.0; Win64; x64) AppleWebKit/537.36 (KHTML, like Gecko) Chrome/126.0.0.0 Safari/537.36" etag="IYhgPcKPIhohL7jmHxNx" version="24.5.3" type="github">
  <diagram id="C5RBs43oDa-KdzZeNtuy" name="Page-1">
    <mxGraphModel dx="1434" dy="738" grid="1" gridSize="10" guides="1" tooltips="1" connect="1" arrows="1" fold="1" page="1" pageScale="1" pageWidth="827" pageHeight="1169" math="0" shadow="0">
      <root>
        <mxCell id="WIyWlLk6GJQsqaUBKTNV-0" />
        <mxCell id="WIyWlLk6GJQsqaUBKTNV-1" parent="WIyWlLk6GJQsqaUBKTNV-0" />
        <mxCell id="WIyWlLk6GJQsqaUBKTNV-3" value="ToDo App" style="rounded=1;whiteSpace=wrap;html=1;fontSize=12;glass=0;strokeWidth=1;shadow=0;labelBackgroundColor=#9AC7BF;fillColor=#9AC7BF;" parent="WIyWlLk6GJQsqaUBKTNV-1" vertex="1">
          <mxGeometry x="354" y="547" width="120" height="120" as="geometry" />
        </mxCell>
        <mxCell id="E3Ri0CPCb96ElYulqOnf-0" value="User" style="shape=umlActor;verticalLabelPosition=top;verticalAlign=bottom;html=1;outlineConnect=0;labelPosition=center;align=center;fontSize=17;fontStyle=1" parent="WIyWlLk6GJQsqaUBKTNV-1" vertex="1">
          <mxGeometry x="361" y="70" width="106" height="150" as="geometry" />
        </mxCell>
        <mxCell id="E3Ri0CPCb96ElYulqOnf-1" value="" style="endArrow=classic;html=1;rounded=0;entryX=0.5;entryY=0;entryDx=0;entryDy=0;exitX=0.5;exitY=0.5;exitDx=0;exitDy=0;exitPerimeter=0;" parent="WIyWlLk6GJQsqaUBKTNV-1" source="E3Ri0CPCb96ElYulqOnf-0" target="Rn37LXi5yIryVCNuZ5Rc-0" edge="1">
          <mxGeometry relative="1" as="geometry">
            <mxPoint x="660" y="182" as="sourcePoint" />
            <mxPoint x="770" y="182" as="targetPoint" />
          </mxGeometry>
        </mxCell>
        <mxCell id="E3Ri0CPCb96ElYulqOnf-2" value="Adds tasks&lt;div&gt;Manages tasks&lt;/div&gt;" style="edgeLabel;resizable=0;html=1;;align=center;verticalAlign=middle;" parent="E3Ri0CPCb96ElYulqOnf-1" connectable="0" vertex="1">
          <mxGeometry relative="1" as="geometry" />
        </mxCell>
        <mxCell id="E3Ri0CPCb96ElYulqOnf-3" value="Trello App" style="ellipse;shape=cloud;whiteSpace=wrap;html=1;" parent="WIyWlLk6GJQsqaUBKTNV-1" vertex="1">
          <mxGeometry x="20" y="677" width="120" height="80" as="geometry" />
        </mxCell>
        <mxCell id="E3Ri0CPCb96ElYulqOnf-8" value="" style="endArrow=classic;html=1;rounded=0;entryX=0;entryY=0.5;entryDx=0;entryDy=0;startArrow=classic;startFill=1;exitX=1;exitY=0.5;exitDx=0;exitDy=0;" parent="WIyWlLk6GJQsqaUBKTNV-1" source="E3Ri0CPCb96ElYulqOnf-10" target="WIyWlLk6GJQsqaUBKTNV-3" edge="1">
          <mxGeometry relative="1" as="geometry">
            <mxPoint x="150" y="477" as="sourcePoint" />
            <mxPoint x="250" y="477" as="targetPoint" />
          </mxGeometry>
        </mxCell>
        <mxCell id="E3Ri0CPCb96ElYulqOnf-9" value="User task data" style="edgeLabel;resizable=0;html=1;;align=center;verticalAlign=middle;" parent="E3Ri0CPCb96ElYulqOnf-8" connectable="0" vertex="1">
          <mxGeometry relative="1" as="geometry" />
        </mxCell>
        <mxCell id="E3Ri0CPCb96ElYulqOnf-10" value="Trello API" style="rounded=1;whiteSpace=wrap;html=1;fillColor=#A9C4EB;" parent="WIyWlLk6GJQsqaUBKTNV-1" vertex="1">
          <mxGeometry x="120" y="672" width="70" height="30" as="geometry" />
        </mxCell>
        <mxCell id="Rn37LXi5yIryVCNuZ5Rc-0" value="&lt;span style=&quot;&quot;&gt;Web browser&lt;/span&gt;" style="rounded=1;whiteSpace=wrap;html=1;fontSize=12;glass=0;strokeWidth=1;shadow=0;labelBackgroundColor=none;fillColor=#FFFFFF;" parent="WIyWlLk6GJQsqaUBKTNV-1" vertex="1">
          <mxGeometry x="354" y="317" width="120" height="120" as="geometry" />
        </mxCell>
        <mxCell id="Rn37LXi5yIryVCNuZ5Rc-1" value="" style="endArrow=classic;html=1;rounded=0;entryX=0.5;entryY=0;entryDx=0;entryDy=0;exitX=0.5;exitY=1;exitDx=0;exitDy=0;startArrow=classic;startFill=1;" parent="WIyWlLk6GJQsqaUBKTNV-1" source="Rn37LXi5yIryVCNuZ5Rc-0" target="WIyWlLk6GJQsqaUBKTNV-3" edge="1">
          <mxGeometry width="50" height="50" relative="1" as="geometry">
            <mxPoint x="480" y="477" as="sourcePoint" />
            <mxPoint x="530" y="427" as="targetPoint" />
          </mxGeometry>
        </mxCell>
        <mxCell id="Rn37LXi5yIryVCNuZ5Rc-2" value="HTTP request/&lt;div&gt;response&lt;/div&gt;" style="edgeLabel;html=1;align=center;verticalAlign=middle;resizable=0;points=[];" parent="Rn37LXi5yIryVCNuZ5Rc-1" vertex="1" connectable="0">
          <mxGeometry x="-0.0286" y="1" relative="1" as="geometry">
            <mxPoint as="offset" />
          </mxGeometry>
        </mxCell>
        <mxCell id="Rn37LXi5yIryVCNuZ5Rc-6" value="&lt;h1 style=&quot;margin-top: 0px;&quot;&gt;Context diagram&lt;/h1&gt;&lt;div&gt;Todo app&lt;/div&gt;" style="text;html=1;whiteSpace=wrap;overflow=hidden;rounded=0;" parent="WIyWlLk6GJQsqaUBKTNV-1" vertex="1">
          <mxGeometry x="65" y="30" width="215" height="80" as="geometry" />
        </mxCell>
      </root>
    </mxGraphModel>
  </diagram>
</mxfile>
